# xmcd
#
# Track frame offsets: 
#        150
#        5254
#        21697
#        41929
#        53956
#        72111
#        95427
#        109330
#        126751
#        146680
#        164905
#        183672
#        200695
#
# Disc length: 2922 seconds
#
# Revision: 6
# Processed by: cddbd v1.5.2PL0 Copyright (c) Steve Scherf et al.
# Submitted via: ExactAudioCopyFreeDBPlugin 1.0
#
DISCID=cb0b680d
DTITLE=ナオト・インティライミ - Nice catch the moment!
DYEAR=2013
DGENRE=JPop
TTITLE0=introduction～Do whatcha wanna～
TTITLE1=Brand new day
TTITLE2=恋する季節
TTITLE3=I'm chi-zu-ers
TTITLE4=365
TTITLE5=君生まれし日
TTITLE6=ナイテタッテ
TTITLE7=Ballooooon!!
TTITLE8=しあわせになるために
TTITLE9=未来スケッチ
TTITLE10=声をきかせて
TTITLE11=I FEEL IT GOOD
TTITLE12=Catch the moment
EXTD=YEAR: 2013
EXTT0=
EXTT1=
EXTT2=
EXTT3=
EXTT4=
EXTT5=
EXTT6=
EXTT7=
EXTT8=
EXTT9=
EXTT10=
EXTT11=
EXTT12=
PLAYORDER=
